<?xml version="1.0" standalone="no"?>
<!DOCTYPE svg PUBLIC "-//W3C//DTD SVG 20010904//EN"
 "http://www.w3.org/TR/2001/REC-SVG-20010904/DTD/svg10.dtd">
<svg version="1.0" xmlns="http://www.w3.org/2000/svg"
 width="200.000000pt" height="200.000000pt" viewBox="0 0 200.000000 200.000000"
 preserveAspectRatio="xMidYMid meet">
<metadata>
Created by potrace 1.14, written by Peter Selinger 2001-2017
</metadata>
<g transform="translate(0.000000,200.000000) scale(0.100000,-0.100000)"
fill="#000000" stroke="none">
<path d="M180 1718 c0 -14 101 -128 112 -128 7 0 36 -25 93 -81 17 -16 33 -29
37 -29 3 0 22 -15 40 -32 19 -18 53 -50 75 -70 60 -55 60 -69 -2 -133 -29 -30
-60 -55 -69 -55 -29 0 -19 -41 14 -53 17 -6 30 -15 30 -21 0 -23 -114 -182
-210 -291 -29 -33 -59 -75 -67 -93 -13 -31 -12 -38 8 -78 23 -48 64 -84 123
-109 53 -22 90 -12 117 32 27 43 141 98 226 108 68 9 114 26 159 60 l32 24 40
-43 c45 -48 72 -122 72 -192 0 -56 -24 -168 -50 -233 -11 -29 -18 -57 -15 -62
13 -20 124 6 210 49 75 37 258 226 322 333 62 101 126 177 162 190 14 6 56 14
94 19 74 9 107 29 107 65 0 20 -17 45 -31 45 -4 0 -9 -9 -12 -20 -9 -34 -34
-22 -82 40 -25 33 -53 63 -62 68 -14 8 -13 13 7 39 30 42 23 66 -20 74 -19 3
-50 13 -68 23 -31 16 -32 18 -17 39 19 28 19 37 -1 37 -24 0 -108 81 -109 104
0 16 -12 23 -55 34 -55 13 -56 14 -52 46 l4 33 -83 -5 c-67 -4 -81 -2 -77 9
23 55 27 52 -53 47 -41 -3 -83 -9 -93 -13 -13 -6 -17 -5 -12 3 10 17 -30 52
-60 52 -40 0 -64 -18 -64 -47 0 -20 3 -23 14 -14 10 8 16 8 24 -2 13 -15 -2
-37 -24 -37 -6 0 -23 -9 -38 -21 l-26 -20 0 42 c0 56 -34 126 -71 145 l-30 15
-19 -45 c-11 -24 -23 -58 -26 -75 -7 -36 -37 -43 -53 -12 -6 10 -25 24 -43 32
-18 7 -49 25 -68 41 -19 15 -44 28 -55 28 -11 0 -31 12 -44 25 -13 14 -33 25
-45 25 -13 0 -31 9 -41 20 -10 11 -26 20 -37 20 -10 0 -18 5 -18 10 0 13 -77
49 -102 50 -10 0 -18 -6 -18 -12z"/>
</g>
</svg>
